<?xml version="1.0" encoding="UTF-8"?>
<svg width="96px" height="96px" viewBox="0 0 96 96" version="1.1" xmlns="http://www.w3.org/2000/svg" xmlns:xlink="http://www.w3.org/1999/xlink">
    <!-- Generator: Sketch 61 (89581) - https://sketch.com -->
    <title>kyc/contract</title>
    <desc>Created with Sketch.</desc>
    <g id="kyc/contract" stroke="none" stroke-width="1" fill="none" fill-rule="evenodd">
        <g id="编组-4" transform="translate(14.000000, 11.000000)" fill="#01081E">
            <path d="M10,67 L10,13 L0,13 L0,8 C0,3.66508574 3.44783777,0.135457134 7.75082067,0.00380682464 L8,0 L56,0 C60.418278,-8.11624501e-16 64,3.581722 64,8 L64,67 L10,67 Z M50,8 L50,13 L12,13 L12,65 L62,65 L62,8 C62,4.76160306 59.4344251,2.12242824 56.2249383,2.00413847 L56,2 C52.6862915,2 50,4.6862915 50,8 Z M8,2 C4.6862915,2 2,4.6862915 2,8 L2,11 L48,11 L48,8 C48,5.61088797 49.0472704,3.46637905 50.7077819,2.00050253 L8,2 Z" id="形状结合"></path>
            <g id="编组-3" transform="translate(21.000000, 23.000000)">
                <g id="编组-2">
                    <circle id="椭圆形" cx="1" cy="1" r="1"></circle>
                    <circle id="椭圆形备份" cx="5" cy="1" r="1"></circle>
                    <circle id="椭圆形备份-2" cx="9" cy="1" r="1"></circle>
                    <circle id="椭圆形备份-3" cx="13" cy="1" r="1"></circle>
                    <circle id="椭圆形备份-4" cx="17" cy="1" r="1"></circle>
                    <circle id="椭圆形备份-5" cx="21" cy="1" r="1"></circle>
                    <circle id="椭圆形备份-6" cx="29" cy="1" r="1"></circle>
                    <circle id="椭圆形备份-7" cx="25" cy="1" r="1"></circle>
                </g>
                <g id="编组-2备份-2" transform="translate(0.000000, 6.000000)">
                    <circle id="椭圆形" cx="1" cy="1" r="1"></circle>
                    <circle id="椭圆形备份" cx="5" cy="1" r="1"></circle>
                    <circle id="椭圆形备份-2" cx="9" cy="1" r="1"></circle>
                    <circle id="椭圆形备份-3" cx="13" cy="1" r="1"></circle>
                    <circle id="椭圆形备份-4" cx="17" cy="1" r="1"></circle>
                    <circle id="椭圆形备份-5" cx="21" cy="1" r="1"></circle>
                    <circle id="椭圆形备份-6" cx="29" cy="1" r="1"></circle>
                    <circle id="椭圆形备份-7" cx="25" cy="1" r="1"></circle>
                </g>
                <g id="编组-2备份" transform="translate(0.000000, 12.000000)">
                    <circle id="椭圆形" cx="1" cy="1" r="1"></circle>
                    <circle id="椭圆形备份" cx="5" cy="1" r="1"></circle>
                    <circle id="椭圆形备份-2" cx="9" cy="1" r="1"></circle>
                    <circle id="椭圆形备份-3" cx="13" cy="1" r="1"></circle>
                </g>
            </g>
        </g>
        <g id="编组" transform="translate(56.000000, 55.000000)" fill="#FFFFFF" stroke="#01081E">
            <polygon id="路径-5" stroke-width="2" transform="translate(7.500000, 24.000000) rotate(-9.000000) translate(-7.500000, -24.000000) " points="7.79908391 18 1 24.5274926 5.67245961 24.5274926 5.67245961 30 14 21.4654499 12.8022722 19.0840722"></polygon>
            <polygon id="路径-5备份" stroke-width="2" transform="translate(21.500000, 24.000000) scale(-1, 1) rotate(-9.000000) translate(-21.500000, -24.000000) " points="21.7990839 18 15 24.5274926 19.6724596 24.5274926 19.6724596 30 28 21.4654499 26.8022722 19.0840722"></polygon>
            <path d="M14.5,20.392414 L11.2967615,21.9560786 C10.8600101,22.1692793 10.3331199,21.9880557 10.1199192,21.5513043 C10.0972024,21.5022434 10.0972024,21.5022434 10.0785744,21.451489 L8.91922052,18.0807795 L5.54851103,16.9214256 C5.08892553,16.7633514 4.84450233,16.2626393 5.00257653,15.8030538 C5.02120461,15.7522994 5.02120461,15.7522994 5.04392139,15.7032385 L6.60758597,12.5 L5.04392139,9.2967615 C4.83072071,8.86001014 5.01194434,8.3331199 5.4486957,8.11991922 C5.49775657,8.09720244 5.49775657,8.09720244 5.54851103,8.07857436 L8.91922052,6.91922052 L10.0785744,3.54851103 C10.2366486,3.08892553 10.7373607,2.84450233 11.1969462,3.00257653 C11.2477006,3.02120461 11.2477006,3.02120461 11.2967615,3.04392139 L14.5,4.60758597 L17.7032385,3.04392139 C18.1399899,2.83072071 18.6668801,3.01194434 18.8800808,3.4486957 C18.9027976,3.49775657 18.9027976,3.49775657 18.9214256,3.54851103 L20.0807795,6.91922052 L23.451489,8.07857436 C23.9110745,8.23664856 24.1554977,8.73736068 23.9974235,9.19694618 C23.9787954,9.24770063 23.9787954,9.24770063 23.9560786,9.2967615 L22.392414,12.5 L23.9560786,15.7032385 C24.1692793,16.1399899 23.9880557,16.6668801 23.5513043,16.8800808 C23.5022434,16.9027976 23.5022434,16.9027976 23.451489,16.9214256 L20.0807795,18.0807795 L18.9214256,21.451489 C18.7633514,21.9110745 18.2626393,22.1554977 17.8030538,21.9974235 C17.7522994,21.9787954 17.7522994,21.9787954 17.7032385,21.9560786 L14.5,20.392414 Z" id="星形" stroke-width="1.6" transform="translate(14.500000, 12.500000) rotate(23.000000) translate(-14.500000, -12.500000) "></path>
        </g>
    </g>
</svg>