<?xml version="1.0" encoding="UTF-8"?>
<svg width="96px" height="96px" viewBox="0 0 96 96" version="1.1" xmlns="http://www.w3.org/2000/svg" xmlns:xlink="http://www.w3.org/1999/xlink">
    <!-- Generator: Sketch 61 (89581) - https://sketch.com -->
    <title>kyc/otc</title>
    <desc>Created with Sketch.</desc>
    <g id="kyc/otc" stroke="none" stroke-width="1" fill="none" fill-rule="evenodd">
        <g id="编组" transform="translate(13.000000, 12.000000)">
            <path d="M25.3070662,17.7880171 C7.50397804,31.5764831 -0.905984151,43.8094451 0.0771796649,54.486903 C1.55192539,70.5030898 20.1066019,71.2338702 34.2330234,71.2338702 C48.3594449,71.2338702 68.396407,71.7174312 68.396407,54.486903 C68.396407,42.9998841 60.0290764,30.7669222 43.2944152,17.7880171 L25.3070662,17.7880171 Z" id="路径-6" stroke="#01081E" stroke-width="2"></path>
            <path d="M48.9275935,9.30351274 C48.9275937,9.30351159 48.9275942,9.30351112 48.9275942,9.30351097 Z M18.0669294,7.31508118 C22.4726263,6.35272984 27.5551569,5.8730891 33.3163567,5.8730891 C39.1360971,5.8730891 44.4718329,6.36255277 49.3237414,7.34313857 C50.4064508,7.56192205 51.1067749,8.61700927 50.887958,9.6997085 C50.7926067,10.171504 50.5303061,10.5930868 50.149194,10.8870876 L41.7433684,17.3715816 C41.3933744,17.641577 40.9637945,17.7880171 40.5217614,17.7880171 L26.9442853,17.7880171 C26.5022522,17.7880171 26.0726724,17.641577 25.7226784,17.3715816 L17.2721446,10.8525984 C16.39754,10.1779321 16.2354788,8.92199648 16.9101617,8.04740751 C17.1975907,7.67481447 17.6071942,7.4155027 18.0669294,7.31508118 Z" id="矩形" stroke="#01081E" stroke-width="2" fill="#FFFFFF"></path>
            <path d="M28.8676289,17.7880171 L38.5984178,17.7880171 L45.2974287,3.55261907 C45.3284665,3.48666372 45.3521997,3.41751242 45.3682052,3.34639789 C45.4894721,2.80759459 45.150991,2.27249912 44.6121909,2.15122933 C41.2036964,1.38408984 37.5776397,1 33.7330234,1 C29.8884111,1 26.262358,1.38408902 22.8538667,2.1512269 C22.7827505,2.16723279 22.7135975,2.19096656 22.6476406,2.22200512 C22.1479162,2.45716951 21.9334518,3.0529091 22.1686256,3.55263499 L28.8676289,17.7880171 Z" id="矩形" stroke="#01081E" stroke-width="2" fill="#FFFFFF"></path>
            <path d="M25.9309793,17.7880171 C20.352667,23.8118516 17.120015,29.0073885 16.2330234,33.3746279" id="路径-7" stroke="#01081E" stroke-width="2" stroke-linecap="round" stroke-linejoin="round"></path>
            <path d="M29.3948874,18.8983598 C23.0676329,26.2413837 19.4009663,32.5747171 18.3948874,37.8983598" id="路径-7备份" stroke="#01081E" stroke-width="2" stroke-linecap="round" stroke-linejoin="round" transform="translate(23.894887, 28.398360) rotate(-15.000000) translate(-23.894887, -28.398360) "></path>
            <g id="btc" transform="translate(25.233023, 29.788017)" fill="#000000" fill-rule="nonzero">
                <path d="M19.2079493,8.85224655 C19.4153226,10.9490207 18.6607143,12.4351959 16.9441244,13.3107719 C18.2920507,13.6333525 19.3001152,14.2266705 19.968318,15.0907258 C20.6365207,15.9547811 20.8957373,17.1875 20.7459677,18.7888825 C20.6653226,19.6068548 20.4781106,20.3269009 20.1843318,20.9490207 C19.890553,21.5711406 19.5190092,22.0838134 19.0697005,22.4870392 C18.6203917,22.890265 18.061636,23.2272466 17.3934332,23.4979839 C16.7252304,23.7687212 16.0253456,23.9674539 15.2937788,24.094182 C14.562212,24.2209102 13.7240784,24.3073157 12.7793779,24.3533986 L12.7793779,28.7600806 L10.1180876,28.7600806 L10.1180876,24.4225231 C9.19642858,24.4225231 8.4936636,24.4167627 8.00979263,24.4052419 L8.00979263,28.7600806 L5.34850231,28.7600806 L5.34850231,24.3533986 C5.14112904,24.3533986 4.83006913,24.3505184 4.41532258,24.3447581 C4.00057603,24.3389977 3.68375576,24.3361175 3.46486176,24.3361175 L0.00864054435,24.3361175 L0.544354839,21.1736751 L2.46255759,21.1736751 C3.03859447,21.1736751 3.37269586,20.8798963 3.46486176,20.2923387 L3.46486176,13.3453341 L3.74135946,13.3453341 C3.67223504,13.3338133 3.58006914,13.328053 3.46486176,13.328053 L3.46486176,8.36837558 C3.31509219,7.58496544 2.80241937,7.19326037 1.92684333,7.19326037 L0.00864054435,7.19326037 L0.00864054435,4.35915898 L3.67223501,4.3764401 C4.40956221,4.3764401 4.96831797,4.37067973 5.34850231,4.35915898 L5.34850231,0.00432027218 L8.00979263,0.00432027218 L8.00979263,4.27275345 C8.95449309,4.24971198 9.65725807,4.23819124 10.1180876,4.23819124 L10.1180876,0.00432027218 L12.7793779,0.00432027218 L12.7793779,4.35915898 C13.6895161,4.43980414 14.4959678,4.56941244 15.1987327,4.74798387 C15.9014977,4.9265553 16.5524194,5.1857719 17.1514977,5.52563365 C17.750576,5.8654954 18.2258064,6.31480415 18.5771889,6.8735599 C18.9285714,7.43231565 19.1388249,8.09187786 19.2079493,8.85224655 Z M15.4925115,18.2704493 C15.4925115,17.8557028 15.406106,17.4870392 15.2332949,17.1644585 C15.0604839,16.8418779 14.8473503,16.5769009 14.593894,16.3695276 C14.3404378,16.1621543 14.0092166,15.9864631 13.6002304,15.8424539 C13.1912443,15.6984447 12.8139401,15.5918779 12.468318,15.5227534 C12.1226958,15.453629 11.6964285,15.4017857 11.1895161,15.3672235 C10.6826037,15.3326613 10.2851383,15.3153802 9.99711983,15.3153802 C9.70910138,15.3153802 9.3375576,15.3211405 8.88248849,15.3326613 C8.42741938,15.3441821 8.15380186,15.3499425 8.06163596,15.3499424 L8.06163596,21.1909562 C8.15380186,21.1909562 8.3669355,21.1938364 8.70103688,21.1995968 C9.03513825,21.2053571 9.31163594,21.2082373 9.53052995,21.2082373 C9.74942396,21.2082373 10.0547235,21.1995968 10.4464286,21.1823157 C10.8381336,21.1650345 11.1751152,21.1419931 11.4573733,21.1131912 C11.7396314,21.0843894 12.0679724,21.0354263 12.4423963,20.9663018 C12.8168202,20.8971774 13.1365207,20.8165322 13.4014977,20.7243664 C13.6664747,20.6322005 13.9400922,20.5112327 14.2223502,20.3614631 C14.5046082,20.2116935 14.7321428,20.0388825 14.9049539,19.8430299 C15.077765,19.6471774 15.2188941,19.4167627 15.328341,19.1517857 C15.437788,18.8868087 15.4925115,18.5930299 15.4925115,18.2704493 L15.4925115,18.2704493 Z M14.265553,10.0446429 C14.265553,9.66445852 14.1935484,9.32747696 14.0495392,9.03369817 C13.90553,8.73991938 13.7298387,8.49798389 13.5224654,8.30789171 C13.3150921,8.11779954 13.0385945,7.95650921 12.6929724,7.82402075 C12.3473503,7.69153228 12.03053,7.59648619 11.7425115,7.53888248 C11.454493,7.48127877 11.1002304,7.43519583 10.6797235,7.40063365 C10.2592166,7.36607147 9.92511524,7.35167054 9.67741935,7.35743087 C9.42972347,7.36319119 9.11866356,7.36895156 8.74423963,7.37471199 C8.3698157,7.38047241 8.14228114,7.38335259 8.06163596,7.38335253 L8.06163596,12.6886521 C8.11923965,12.6886521 8.31797236,12.6915323 8.65783409,12.6972926 C8.99769583,12.703053 9.26555297,12.703053 9.46140553,12.6972926 C9.65725809,12.6915323 9.94527652,12.6800115 10.3254608,12.6627304 C10.7056451,12.6454493 11.0224654,12.6137673 11.2759217,12.5676843 C11.5293779,12.5216014 11.8260369,12.4582373 12.1658986,12.3775922 C12.5057603,12.296947 12.7851382,12.1903802 13.0040323,12.0578917 C13.2229263,11.9254033 13.43606,11.7698733 13.6434332,11.5913018 C13.8508064,11.4127304 14.0063363,11.1909562 14.1100231,10.9259793 C14.2137098,10.6610023 14.265553,10.3672235 14.265553,10.0446429 L14.265553,10.0446429 Z" id="形状"></path>
            </g>
            <circle id="椭圆形" fill="#01081E" cx="10.2330234" cy="59.7880171" r="1"></circle>
            <circle id="椭圆形备份" fill="#01081E" cx="15.2330234" cy="62.7880171" r="1"></circle>
            <circle id="椭圆形备份-2" fill="#01081E" cx="20.2330234" cy="64.7880171" r="1"></circle>
            <circle id="椭圆形备份-3" fill="#01081E" cx="25.2330234" cy="66" r="1"></circle>
            <circle id="椭圆形备份-4" fill="#01081E" cx="30.2330234" cy="66.7880171" r="1"></circle>
            <circle id="椭圆形备份-5" fill="#01081E" cx="35.2330234" cy="66.7880171" r="1"></circle>
            <circle id="椭圆形备份-6" fill="#01081E" cx="45.2330234" cy="66" r="1"></circle>
            <circle id="椭圆形备份-9" fill="#01081E" cx="55.2330234" cy="62.7880171" r="1"></circle>
            <circle id="椭圆形备份-11" fill="#01081E" cx="50" cy="65" r="1"></circle>
            <circle id="椭圆形备份-10" fill="#01081E" cx="60.2330234" cy="59.7880171" r="1"></circle>
            <circle id="椭圆形备份-7" fill="#01081E" cx="40.2330234" cy="66.7880171" r="1"></circle>
        </g>
    </g>
</svg>