<?xml version="1.0" encoding="UTF-8"?>
<svg width="96px" height="96px" viewBox="0 0 96 96" version="1.1" xmlns="http://www.w3.org/2000/svg" xmlns:xlink="http://www.w3.org/1999/xlink">
    <!-- Generator: Sketch 61 (89581) - https://sketch.com -->
    <title>kyc/withdraw2</title>
    <desc>Created with Sketch.</desc>
    <g id="kyc/withdraw2" stroke="none" stroke-width="1" fill="none" fill-rule="evenodd">
        <g id="编组-3" transform="translate(12.000000, 12.000000)">
            <path d="M68,37 C68.5522847,37 69,36.5522847 69,36 C69,35.4477153 68.5522847,35 68,35 C67.4477153,35 67,35.4477153 67,36 C67,36.5522847 67.4477153,37 68,37 Z M68,53 C68.5522847,53 69,52.5522847 69,52 C69,51.4477153 68.5522847,51 68,51 C67.4477153,51 67,51.4477153 67,52 C67,52.5522847 67.4477153,53 68,53 Z M73,22 L73,74 L0,74 L0,22 L73,22 Z M71,70 L2,70 L2,72 L71,72 L71,70 Z M71,65 L2,65 L2,68 L71,68 L71,65 Z M71,24 L2,24 L2,63 L71,63 L71,24 Z M59,59 C59.5522847,59 60,59.4477153 60,60 C60,60.5522847 59.5522847,61 59,61 C58.4477153,61 58,60.5522847 58,60 C58,59.4477153 58.4477153,59 59,59 Z M15,59 C15.5522847,59 16,59.4477153 16,60 C16,60.5522847 15.5522847,61 15,61 C14.4477153,61 14,60.5522847 14,60 C14,59.4477153 14.4477153,59 15,59 Z M31,59 C31.5522847,59 32,59.4477153 32,60 C32,60.5522847 31.5522847,61 31,61 C30.4477153,61 30,60.5522847 30,60 C30,59.4477153 30.4477153,59 31,59 Z M47,59 C47.5522847,59 48,59.4477153 48,60 C48,60.5522847 47.5522847,61 47,61 C46.4477153,61 46,60.5522847 46,60 C46,59.4477153 46.4477153,59 47,59 Z M19,59 C19.5522847,59 20,59.4477153 20,60 C20,60.5522847 19.5522847,61 19,61 C18.4477153,61 18,60.5522847 18,60 C18,59.4477153 18.4477153,59 19,59 Z M35,59 C35.5522847,59 36,59.4477153 36,60 C36,60.5522847 35.5522847,61 35,61 C34.4477153,61 34,60.5522847 34,60 C34,59.4477153 34.4477153,59 35,59 Z M51,59 C51.5522847,59 52,59.4477153 52,60 C52,60.5522847 51.5522847,61 51,61 C50.4477153,61 50,60.5522847 50,60 C50,59.4477153 50.4477153,59 51,59 Z M23,59 C23.5522847,59 24,59.4477153 24,60 C24,60.5522847 23.5522847,61 23,61 C22.4477153,61 22,60.5522847 22,60 C22,59.4477153 22.4477153,59 23,59 Z M39,59 C39.5522847,59 40,59.4477153 40,60 C40,60.5522847 39.5522847,61 39,61 C38.4477153,61 38,60.5522847 38,60 C38,59.4477153 38.4477153,59 39,59 Z M55,59 C55.5522847,59 56,59.4477153 56,60 C56,60.5522847 55.5522847,61 55,61 C54.4477153,61 54,60.5522847 54,60 C54,59.4477153 54.4477153,59 55,59 Z M27,59 C27.5522847,59 28,59.4477153 28,60 C28,60.5522847 27.5522847,61 27,61 C26.4477153,61 26,60.5522847 26,60 C26,59.4477153 26.4477153,59 27,59 Z M43,59 C43.5522847,59 44,59.4477153 44,60 C44,60.5522847 43.5522847,61 43,61 C42.4477153,61 42,60.5522847 42,60 C42,59.4477153 42.4477153,59 43,59 Z M61,55 C61.5522847,55 62,55.4477153 62,56 C62,56.5522847 61.5522847,57 61,57 C60.4477153,57 60,56.5522847 60,56 C60,55.4477153 60.4477153,55 61,55 Z M13,55 C13.5522847,55 14,55.4477153 14,56 C14,56.5522847 13.5522847,57 13,57 C12.4477153,57 12,56.5522847 12,56 C12,55.4477153 12.4477153,55 13,55 Z M37,33 C43.0751322,33 48,37.9248678 48,44 C48,50.0751322 43.0751322,55 37,55 C30.9248678,55 26,50.0751322 26,44 C26,37.9248678 30.9248678,33 37,33 Z M9,52 C9.55228475,52 10,52.4477153 10,53 C10,53.5522847 9.55228475,54 9,54 C8.44771525,54 8,53.5522847 8,53 C8,52.4477153 8.44771525,52 9,52 Z M64,52 C64.5522847,52 65,52.4477153 65,53 C65,53.5522847 64.5522847,54 64,54 C63.4477153,54 63,53.5522847 63,53 C63,52.4477153 63.4477153,52 64,52 Z M37,35 C32.0294373,35 28,39.0294373 28,44 C28,48.9705627 32.0294373,53 37,53 C41.9705627,53 46,48.9705627 46,44 C46,39.0294373 41.9705627,35 37,35 Z M5,51 C5.55228475,51 6,51.4477153 6,52 C6,52.5522847 5.55228475,53 5,53 C4.44771525,53 4,52.5522847 4,52 C4,51.4477153 4.44771525,51 5,51 Z M5,47 C5.55228475,47 6,47.4477153 6,48 C6,48.5522847 5.55228475,49 5,49 C4.44771525,49 4,48.5522847 4,48 C4,47.4477153 4.44771525,47 5,47 Z M68,47 C68.5522847,47 69,47.4477153 69,48 C69,48.5522847 68.5522847,49 68,49 C67.4477153,49 67,48.5522847 67,48 C67,47.4477153 67.4477153,47 68,47 Z M16,40 C18.209139,40 20,41.790861 20,44 C20,46.209139 18.209139,48 16,48 C13.790861,48 12,46.209139 12,44 C12,41.790861 13.790861,40 16,40 Z M58,40 C60.209139,40 62,41.790861 62,44 C62,46.209139 60.209139,48 58,48 C55.790861,48 54,46.209139 54,44 C54,41.790861 55.790861,40 58,40 Z M16,42 C14.8954305,42 14,42.8954305 14,44 C14,45.1045695 14.8954305,46 16,46 C17.1045695,46 18,45.1045695 18,44 C18,42.8954305 17.1045695,42 16,42 Z M58,42 C56.8954305,42 56,42.8954305 56,44 C56,45.1045695 56.8954305,46 58,46 C59.1045695,46 60,45.1045695 60,44 C60,42.8954305 59.1045695,42 58,42 Z M68,43 C68.5522847,43 69,43.4477153 69,44 C69,44.5522847 68.5522847,45 68,45 C67.4477153,45 67,44.5522847 67,44 C67,43.4477153 67.4477153,43 68,43 Z M5,43 C5.55228475,43 6,43.4477153 6,44 C6,44.5522847 5.55228475,45 5,45 C4.44771525,45 4,44.5522847 4,44 C4,43.4477153 4.44771525,43 5,43 Z M68,39 C68.5522847,39 69,39.4477153 69,40 C69,40.5522847 68.5522847,41 68,41 C67.4477153,41 67,40.5522847 67,40 C67,39.4477153 67.4477153,39 68,39 Z M5,39 C5.55228475,39 6,39.4477153 6,40 C6,40.5522847 5.55228475,41 5,41 C4.44771525,41 4,40.5522847 4,40 C4,39.4477153 4.44771525,39 5,39 Z M5,35 C5.55228475,35 6,35.4477153 6,36 C6,36.5522847 5.55228475,37 5,37 C4.44771525,37 4,36.5522847 4,36 C4,35.4477153 4.44771525,35 5,35 Z M9,33 C9.55228475,33 10,33.4477153 10,34 C10,34.5522847 9.55228475,35 9,35 C8.44771525,35 8,34.5522847 8,34 C8,33.4477153 8.44771525,33 9,33 Z M64,33 C64.5522847,33 65,33.4477153 65,34 C65,34.5522847 64.5522847,35 64,35 C63.4477153,35 63,34.5522847 63,34 C63,33.4477153 63.4477153,33 64,33 Z M61,30 C61.5522847,30 62,30.4477153 62,31 C62,31.5522847 61.5522847,32 61,32 C60.4477153,32 60,31.5522847 60,31 C60,30.4477153 60.4477153,30 61,30 Z M13,30 C13.5522847,30 14,30.4477153 14,31 C14,31.5522847 13.5522847,32 13,32 C12.4477153,32 12,31.5522847 12,31 C12,30.4477153 12.4477153,30 13,30 Z M59,26 C59.5522847,26 60,26.4477153 60,27 C60,27.5522847 59.5522847,28 59,28 C58.4477153,28 58,27.5522847 58,27 C58,26.4477153 58.4477153,26 59,26 Z M27,26 C27.5522847,26 28,26.4477153 28,27 C28,27.5522847 27.5522847,28 27,28 C26.4477153,28 26,27.5522847 26,27 C26,26.4477153 26.4477153,26 27,26 Z M55,26 C55.5522847,26 56,26.4477153 56,27 C56,27.5522847 55.5522847,28 55,28 C54.4477153,28 54,27.5522847 54,27 C54,26.4477153 54.4477153,26 55,26 Z M39,26 C39.5522847,26 40,26.4477153 40,27 C40,27.5522847 39.5522847,28 39,28 C38.4477153,28 38,27.5522847 38,27 C38,26.4477153 38.4477153,26 39,26 Z M23,26 C23.5522847,26 24,26.4477153 24,27 C24,27.5522847 23.5522847,28 23,28 C22.4477153,28 22,27.5522847 22,27 C22,26.4477153 22.4477153,26 23,26 Z M51,26 C51.5522847,26 52,26.4477153 52,27 C52,27.5522847 51.5522847,28 51,28 C50.4477153,28 50,27.5522847 50,27 C50,26.4477153 50.4477153,26 51,26 Z M35,26 C35.5522847,26 36,26.4477153 36,27 C36,27.5522847 35.5522847,28 35,28 C34.4477153,28 34,27.5522847 34,27 C34,26.4477153 34.4477153,26 35,26 Z M19,26 C19.5522847,26 20,26.4477153 20,27 C20,27.5522847 19.5522847,28 19,28 C18.4477153,28 18,27.5522847 18,27 C18,26.4477153 18.4477153,26 19,26 Z M47,26 C47.5522847,26 48,26.4477153 48,27 C48,27.5522847 47.5522847,28 47,28 C46.4477153,28 46,27.5522847 46,27 C46,26.4477153 46.4477153,26 47,26 Z M43,26 C43.5522847,26 44,26.4477153 44,27 C44,27.5522847 43.5522847,28 43,28 C42.4477153,28 42,27.5522847 42,27 C42,26.4477153 42.4477153,26 43,26 Z M15,26 C15.5522847,26 16,26.4477153 16,27 C16,27.5522847 15.5522847,28 15,28 C14.4477153,28 14,27.5522847 14,27 C14,26.4477153 14.4477153,26 15,26 Z M31,26 C31.5522847,26 32,26.4477153 32,27 C32,27.5522847 31.5522847,28 31,28 C30.4477153,28 30,27.5522847 30,27 C30,26.4477153 30.4477153,26 31,26 Z" id="形状结合" fill="#01081E"></path>
            <path d="M31,13 L21.5143564,13 L36.5,-1.38621788 L51.4856436,13 L42,13 L42,23.0660105 L31,23.0660105 L31,13 Z" id="路径-3" stroke="#01081E" stroke-width="2"></path>
        </g>
    </g>
</svg>